<svg width="32" height="30" viewBox="0 0 32 30" fill="none" xmlns="http://www.w3.org/2000/svg">
<path d="M16 0C16.755 3.02759 17.1325 4.54139 17.7462 5.85484C19.3019 9.18436 22.0258 11.8269 25.4009 13.281C26.7323 13.8547 28.2569 14.1861 31.306 14.8491L32 15L31.306 15.1509C28.2569 15.8139 26.7323 16.1453 25.4009 16.719C22.0258 18.1731 19.3019 20.8156 17.7462 24.1452C17.1325 25.4586 16.755 26.9724 16 30C15.245 26.9724 14.8675 25.4586 14.2538 24.1452C12.6981 20.8156 9.97422 18.1731 6.59911 16.719C5.26766 16.1453 3.74312 15.8139 0.69405 15.1509L0 15L0.69405 14.8491C3.74312 14.1861 5.26766 13.8547 6.59911 13.281C9.97422 11.8269 12.6981 9.18436 14.2538 5.85484C14.8675 4.54138 15.245 3.02759 16 0Z" fill="black"/>
</svg>
