<svg width="41" height="42" viewBox="0 0 41 42" fill="none" xmlns="http://www.w3.org/2000/svg">
<path d="M20.4735 0.5C31.8241 0.5 41 9.67594 41 20.9735C41 32.271 31.8241 41.447 20.4735 41.447C9.17594 41.447 0 32.271 0 20.9735C0 9.67594 9.17594 0.5 20.4735 0.5Z" fill="#F0F0F0"/>
<path d="M20.5002 21.9764C23.1959 21.9764 25.3812 19.7911 25.3812 17.0954C25.3812 14.3998 23.1959 12.2145 20.5002 12.2145C17.8045 12.2145 15.6193 14.3998 15.6193 17.0954C15.6193 19.7911 17.8045 21.9764 20.5002 21.9764Z" stroke="black" stroke-width="1.64" stroke-linecap="round" stroke-linejoin="round"/>
<path d="M28.3094 29.7861C28.3094 27.7149 27.4866 25.7285 26.022 24.2639C24.5574 22.7993 22.571 21.9766 20.4998 21.9766C18.4286 21.9766 16.4422 22.7993 14.9777 24.2639C13.5131 25.7285 12.6903 27.7149 12.6903 29.7861" stroke="black" stroke-width="1.64" stroke-linecap="round" stroke-linejoin="round"/>
</svg>
